<svg id="SvgjsSvg1000" xmlns="http://www.w3.org/2000/svg" version="1.1" xmlns:xlink="http://www.w3.org/1999/xlink" xmlns:svgjs="http://svgjs.com/svgjs" width="15" height="41" viewBox="0 0 15 41"><title>Forma 1 копия 3</title><desc>Created with Avocode.</desc><defs id="SvgjsDefs1001"></defs><path id="SvgjsPath1007" d="M821.25 736.997H819.489C815.85 736.997 813 740.0419999999999 813 743.93V753.635C813 757.523 815.85 760.568 819.489 760.568H821.25C824.972 760.568 828 757.458 828 753.635V743.93C828 740.107 824.972 736.997 821.25 736.997ZM820.432 740.63H820.568C820.781 740.63 820.954 740.808 820.954 741.027V743.85C820.954 744.068 820.781 744.2470000000001 820.568 744.2470000000001H820.432C820.219 744.2470000000001 820.046 744.0680000000001 820.046 743.85V741.027C820.046 740.808 820.219 740.63 820.432 740.63ZM827.117 753.635C827.117 756.959 824.485 759.662 821.25 759.662H819.489C816.345 759.662 813.883 757.014 813.883 753.635V743.93C813.883 740.5509999999999 816.345 737.904 819.489 737.904H820.053V739.783C819.538 739.9490000000001 819.163 740.443 819.163 741.027V743.85C819.163 744.433 819.538 744.928 820.053 745.094V747.426C820.053 747.676 820.251 747.879 820.494 747.879C820.738 747.879 820.936 747.676 820.936 747.426V745.0970000000001C821.457 744.9350000000001 821.837 744.4380000000001 821.837 743.8500000000001V741.0270000000002C821.837 740.4400000000002 821.457 739.9420000000001 820.936 739.7800000000002V737.9040000000002H821.25C824.485 737.9040000000002 827.117 740.6070000000002 827.117 743.9300000000002ZM825.747 765.673C825.5989999999999 765.533 825.3589999999999 765.533 825.212 765.673L820.505 770.127L815.789 765.673C815.641 765.533 815.401 765.533 815.253 765.673C815.106 765.813 815.106 766.039 815.253 766.179L820.2280000000001 770.8779999999999C820.302 770.9469999999999 820.3940000000001 770.982 820.4960000000001 770.982C820.5880000000001 770.982 820.6890000000001 770.947 820.7630000000001 770.8779999999999L825.7380000000002 766.179C825.8950000000002 766.039 825.8950000000002 765.813 825.7470000000002 765.673ZM825.747 771.689C825.5989999999999 771.549 825.3589999999999 771.549 825.212 771.689L820.505 776.1429999999999L815.789 771.689C815.641 771.549 815.401 771.549 815.253 771.689C815.106 771.827 815.106 772.053 815.253 772.193L820.2280000000001 776.8919999999999C820.302 776.962 820.3940000000001 776.997 820.4960000000001 776.997C820.5880000000001 776.997 820.6890000000001 776.962 820.7630000000001 776.8919999999999L825.7380000000002 772.193C825.8950000000002 772.053 825.8950000000002 771.827 825.7470000000002 771.689Z " fill="#ffffff" fill-opacity="1" transform="matrix(1,0,0,1,-813,-736)"></path></svg>
